<svg viewBox="0 0 181 202" fill="none" xmlns="http://www.w3.org/2000/svg">
  <path fill="#fff" d="M1 106h28v28H1z"/>
  <circle cx="7.3" cy="127.7" r="3.5" fill="#000"/>
  <circle cx="7.3" cy="112.3" transform="rotate(90 7.3 112.3)" fill="#000" r="3.5"/>
  <circle cx="22.7" cy="112.3" r="3.5" fill="#000"/>
  <circle cx="22.7" cy="127.7" r="3.5" transform="rotate(90 22.7 127.7)" fill="#000"/>
  <path stroke="#000" d="M1 106h28v28H1z"/>
  <path fill="#fff" d="M62 106h28v28H62z"/>
  <circle cx="68.3" cy="127.7" r="3.5" fill="#000"/>
  <circle cx="68.3" cy="112.3" r="3.5" transform="rotate(90 68.3 112.3)" fill="#000"/>
  <circle cx="83.7" cy="112.3" r="3.5" fill="#000"/>
  <circle cx="83.7" cy="127.7" r="3.5" transform="rotate(90 83.7 127.7)" fill="#000"/>
  <circle cx="75.86" cy="120.14" fill="#000" r="3.5"/>
  <path stroke="#000" d="M62 106h28v28H62z"/>
  <path fill="#fff" d="M122 106h29v29h-29z"/>
  <circle cx="128.525" cy="128.475" fill="#000" r="3.625"/>
  <circle cx="128.525" cy="112.525" r="3.625" transform="rotate(90 128.525 112.525)" fill="#000"/>
  <circle cx="144.475" cy="112.525" fill="#000" r="3.625"/>
  <circle cx="144.475" cy="128.475" r="3.625" transform="rotate(90 144.475 128.475)" fill="#000"/>
  <circle cx="144.475" cy="120.645" r="3.625" fill="#000"/>
  <circle cx="128.525" cy="120.645" fill="#000" r="3.625"/>
  <path stroke="#000" d="M122 106h29v29h-29z"/>
  <path d="M3.4 145.4c.464 0 .875.08 1.232.24.363.16.667.371.912.632.25.261.44.56.568.896a2.876 2.876 0 0 1 0 2.064 2.636 2.636 0 0 1-.568.896c-.245.261-.55.472-.912.632-.357.16-.768.24-1.232.24H1.584v-5.6H3.4Zm-.896.824v3.952H3.4c.31 0 .587-.056.832-.168a1.88 1.88 0 0 0 .616-.44 1.95 1.95 0 0 0 .376-.632c.09-.24.136-.485.136-.736s-.045-.493-.136-.728a1.84 1.84 0 0 0-.376-.632 1.815 1.815 0 0 0-.616-.448 1.982 1.982 0 0 0-.832-.168h-.896Zm7.057 1.856a1.51 1.51 0 0 0-.176-.032 1.486 1.486 0 0 0-.168-.008c-.373 0-.658.109-.856.328-.197.213-.296.555-.296 1.024V151h-.872v-3.728h.872v.6a.936.936 0 0 1 .176-.24c.08-.08.171-.149.272-.208.107-.064.219-.112.336-.144a1.27 1.27 0 0 1 .368-.056c.139 0 .254.019.344.056v.8Zm4.195-.808V151h-.872v-.504a1.198 1.198 0 0 1-.504.44 1.43 1.43 0 0 1-.648.16c-.283 0-.542-.051-.776-.152a1.923 1.923 0 0 1-.608-.432 2.086 2.086 0 0 1-.392-.624 2.068 2.068 0 0 1-.136-.752c0-.261.045-.509.136-.744.096-.24.226-.451.392-.632.17-.181.373-.323.608-.424.234-.107.493-.16.776-.16.218 0 .434.053.648.16.218.107.386.253.504.44v-.504h.872Zm-1.976 3.048a1.065 1.065 0 0 0 .8-.352c.096-.107.17-.232.224-.376a1.3 1.3 0 0 0 .08-.456 1.3 1.3 0 0 0-.08-.456 1.158 1.158 0 0 0-.224-.376 1.065 1.065 0 0 0-.8-.352c-.166 0-.315.032-.448.096a1.09 1.09 0 0 0-.344.256 1.16 1.16 0 0 0-.224.376 1.433 1.433 0 0 0-.072.456c0 .16.024.312.072.456.053.144.128.269.224.376.096.107.21.192.344.256.133.064.282.096.448.096Zm5.572-2.104L16.368 151h-.584l-1.448-3.728h.936l.808 2.36.84-2.36h.856l.84 2.36.808-2.36h.936L18.912 151h-.584l-.976-2.784ZM64.4 145.4c.464 0 .875.08 1.232.24.363.16.667.371.912.632.25.261.44.56.568.896a2.876 2.876 0 0 1 0 2.064 2.636 2.636 0 0 1-.568.896c-.245.261-.55.472-.912.632-.357.16-.768.24-1.232.24h-1.816v-5.6H64.4Zm-.896.824v3.952h.896c.31 0 .587-.056.832-.168a1.88 1.88 0 0 0 .616-.44 1.95 1.95 0 0 0 .376-.632c.09-.24.136-.485.136-.736s-.045-.493-.136-.728a1.84 1.84 0 0 0-.376-.632 1.815 1.815 0 0 0-.616-.448 1.982 1.982 0 0 0-.832-.168h-.896Zm7.057 1.856a1.512 1.512 0 0 0-.176-.032 1.487 1.487 0 0 0-.168-.008c-.373 0-.658.109-.856.328-.197.213-.296.555-.296 1.024V151h-.872v-3.728h.872v.6a.934.934 0 0 1 .176-.24c.08-.08.171-.149.272-.208a1.33 1.33 0 0 1 .336-.144c.123-.037.246-.056.368-.056.139 0 .254.019.344.056v.8Zm4.195-.808V151h-.872v-.504a1.198 1.198 0 0 1-.504.44 1.43 1.43 0 0 1-.648.16c-.283 0-.542-.051-.776-.152a1.923 1.923 0 0 1-.608-.432 2.087 2.087 0 0 1-.392-.624 2.07 2.07 0 0 1-.136-.752c0-.261.045-.509.136-.744.096-.24.226-.451.392-.632.17-.181.373-.323.608-.424.234-.107.493-.16.776-.16.218 0 .434.053.648.16.218.107.386.253.504.44v-.504h.872Zm-1.976 3.048a1.065 1.065 0 0 0 .8-.352c.096-.107.17-.232.224-.376a1.3 1.3 0 0 0 .08-.456 1.3 1.3 0 0 0-.08-.456 1.158 1.158 0 0 0-.224-.376 1.065 1.065 0 0 0-.8-.352c-.166 0-.315.032-.448.096a1.09 1.09 0 0 0-.344.256 1.16 1.16 0 0 0-.224.376 1.433 1.433 0 0 0-.072.456c0 .16.024.312.072.456.053.144.128.269.224.376.096.107.21.192.344.256.133.064.282.096.448.096Zm5.572-2.104L77.368 151h-.584l-1.448-3.728h.936l.808 2.36.84-2.36h.856l.84 2.36.808-2.36h.936L79.912 151h-.584l-.976-2.784ZM124.4 145.4c.464 0 .875.08 1.232.24.363.16.667.371.912.632.251.261.44.56.568.896a2.876 2.876 0 0 1 0 2.064 2.631 2.631 0 0 1-.568.896 2.758 2.758 0 0 1-.912.632c-.357.16-.768.24-1.232.24h-1.816v-5.6h1.816Zm-.896.824v3.952h.896c.309 0 .587-.056.832-.168a1.88 1.88 0 0 0 .616-.44 1.95 1.95 0 0 0 .376-.632c.091-.24.136-.485.136-.736s-.045-.493-.136-.728a1.84 1.84 0 0 0-.376-.632 1.815 1.815 0 0 0-.616-.448 1.982 1.982 0 0 0-.832-.168h-.896Zm7.057 1.856a1.497 1.497 0 0 0-.176-.032 1.469 1.469 0 0 0-.168-.008c-.373 0-.658.109-.856.328-.197.213-.296.555-.296 1.024V151h-.872v-3.728h.872v.6a.96.96 0 0 1 .176-.24c.08-.08.171-.149.272-.208.107-.064.219-.112.336-.144.123-.037.246-.056.368-.056.139 0 .254.019.344.056v.8Zm4.195-.808V151h-.872v-.504a1.207 1.207 0 0 1-.504.44c-.214.107-.43.16-.648.16a1.94 1.94 0 0 1-.776-.152 1.91 1.91 0 0 1-.608-.432 2.073 2.073 0 0 1-.392-.624 2.061 2.061 0 0 1-.136-.752c0-.261.045-.509.136-.744.096-.24.226-.451.392-.632a1.8 1.8 0 0 1 .608-.424c.234-.107.493-.16.776-.16.218 0 .434.053.648.16.218.107.386.253.504.44v-.504h.872Zm-1.976 3.048a1.073 1.073 0 0 0 1.024-.728 1.31 1.31 0 0 0 .08-.456c0-.16-.027-.312-.08-.456a1.073 1.073 0 0 0-1.024-.728c-.166 0-.315.032-.448.096a1.082 1.082 0 0 0-.344.256 1.153 1.153 0 0 0-.224.376 1.433 1.433 0 0 0-.072.456c0 .16.024.312.072.456.053.144.128.269.224.376.096.107.21.192.344.256.133.064.282.096.448.096Zm5.572-2.104-.984 2.784h-.584l-1.448-3.728h.936l.808 2.36.84-2.36h.856l.84 2.36.808-2.36h.936L139.912 151h-.584l-.976-2.784Z" fill="#000"/>
  <path stroke="#000" d="M1.5 161.5h27v27h-27zM62 175h28M136 161v28"/>
  <path fill="#fff" d="M1 1h28v28H1z"/>
  <circle cx="14.86" cy="14.86" r="3.5" fill="#000"/>
  <path stroke="#000" d="M1 1h28v28H1z"/>
  <path fill="#fff" d="M62 1h28v28H62z"/>
  <circle cx="68.3" cy="22.7" r="3.5" fill="#000"/>
  <circle cx="83.7" cy="7.3" r="3.5" fill="#000"/>
  <path stroke="#000" d="M62 1h28v28H62z"/>
  <path fill="#fff" d="M122 1h29v29h-29z"/>
  <circle cx="128.525" cy="23.475" fill="#000" r="3.625"/>
  <circle cx="144.475" cy="7.525" fill="#000" r="3.625"/>
  <circle cx="136.355" cy="15.645" r="3.625" fill="#000"/>
  <path stroke="#000" d="M122 1h29v29h-29z"/>
  <path d="M3.4 39.4c.464 0 .875.08 1.232.24.363.16.667.37.912.632.25.261.44.56.568.896a2.876 2.876 0 0 1 0 2.064 2.64 2.64 0 0 1-.568.896 2.76 2.76 0 0 1-.912.632c-.357.16-.768.24-1.232.24H1.584v-5.6H3.4Zm-.896.824v3.952H3.4c.31 0 .587-.056.832-.168.245-.112.45-.259.616-.44a1.95 1.95 0 0 0 .376-.632c.09-.24.136-.485.136-.736 0-.25-.045-.493-.136-.728-.085-.24-.21-.45-.376-.632a1.819 1.819 0 0 0-.616-.448 1.982 1.982 0 0 0-.832-.168h-.896Zm7.057 1.856a1.418 1.418 0 0 0-.344-.04c-.373 0-.658.11-.856.328-.197.213-.296.555-.296 1.024V45h-.872v-3.728h.872v.6a.926.926 0 0 1 .176-.24c.08-.08.171-.15.272-.208.107-.064.219-.112.336-.144a1.26 1.26 0 0 1 .368-.056.91.91 0 0 1 .344.056v.8Zm4.195-.808V45h-.872v-.504a1.198 1.198 0 0 1-.504.44c-.214.107-.43.16-.648.16-.283 0-.542-.05-.776-.152a1.914 1.914 0 0 1-.608-.432 2.094 2.094 0 0 1-.392-.624 2.068 2.068 0 0 1-.136-.752c0-.261.045-.51.136-.744.096-.24.226-.45.392-.632.17-.181.373-.323.608-.424.234-.107.493-.16.776-.16.218 0 .434.053.648.16.218.107.386.253.504.44v-.504h.872ZM11.78 44.32a1.07 1.07 0 0 0 .8-.352c.096-.107.17-.232.224-.376a1.3 1.3 0 0 0 .08-.456 1.3 1.3 0 0 0-.08-.456 1.155 1.155 0 0 0-.224-.376 1.07 1.07 0 0 0-.8-.352c-.166 0-.315.032-.448.096a1.095 1.095 0 0 0-.568.632 1.433 1.433 0 0 0-.072.456c0 .16.024.312.072.456a1.095 1.095 0 0 0 .568.632c.133.064.282.096.448.096Zm5.572-2.104L16.368 45h-.584l-1.448-3.728h.936l.808 2.36.84-2.36h.856l.84 2.36.808-2.36h.936L18.912 45h-.584l-.976-2.784ZM64.4 39.4c.464 0 .875.08 1.232.24.363.16.667.37.912.632.25.261.44.56.568.896a2.876 2.876 0 0 1 0 2.064 2.639 2.639 0 0 1-.568.896 2.76 2.76 0 0 1-.912.632c-.357.16-.768.24-1.232.24h-1.816v-5.6H64.4Zm-.896.824v3.952h.896c.31 0 .587-.056.832-.168.245-.112.45-.259.616-.44a1.95 1.95 0 0 0 .376-.632c.09-.24.136-.485.136-.736 0-.25-.045-.493-.136-.728-.085-.24-.21-.45-.376-.632a1.819 1.819 0 0 0-.616-.448 1.982 1.982 0 0 0-.832-.168h-.896Zm7.057 1.856a1.419 1.419 0 0 0-.344-.04c-.373 0-.658.11-.856.328-.197.213-.296.555-.296 1.024V45h-.872v-3.728h.872v.6a.924.924 0 0 1 .176-.24c.08-.08.171-.15.272-.208a1.33 1.33 0 0 1 .336-.144c.123-.037.246-.056.368-.056.139 0 .254.019.344.056v.8Zm4.195-.808V45h-.872v-.504a1.198 1.198 0 0 1-.504.44c-.214.107-.43.16-.648.16-.283 0-.542-.05-.776-.152a1.914 1.914 0 0 1-.608-.432 2.095 2.095 0 0 1-.392-.624 2.07 2.07 0 0 1-.136-.752c0-.261.045-.51.136-.744.096-.24.226-.45.392-.632.17-.181.373-.323.608-.424.234-.107.493-.16.776-.16.218 0 .434.053.648.16.218.107.386.253.504.44v-.504h.872ZM72.78 44.32a1.07 1.07 0 0 0 .8-.352c.096-.107.17-.232.224-.376a1.3 1.3 0 0 0 .08-.456 1.3 1.3 0 0 0-.08-.456 1.155 1.155 0 0 0-.224-.376 1.07 1.07 0 0 0-.8-.352c-.166 0-.315.032-.448.096a1.095 1.095 0 0 0-.568.632 1.433 1.433 0 0 0-.072.456c0 .16.024.312.072.456a1.095 1.095 0 0 0 .568.632c.133.064.282.096.448.096Zm5.572-2.104L77.368 45h-.584l-1.448-3.728h.936l.808 2.36.84-2.36h.856l.84 2.36.808-2.36h.936L79.912 45h-.584l-.976-2.784ZM124.4 39.4c.464 0 .875.08 1.232.24.363.16.667.37.912.632.251.261.44.56.568.896a2.876 2.876 0 0 1 0 2.064 2.634 2.634 0 0 1-.568.896 2.754 2.754 0 0 1-.912.632c-.357.16-.768.24-1.232.24h-1.816v-5.6h1.816Zm-.896.824v3.952h.896c.309 0 .587-.056.832-.168.245-.112.451-.259.616-.44a1.95 1.95 0 0 0 .376-.632 2.06 2.06 0 0 0 .136-.736c0-.25-.045-.493-.136-.728a1.844 1.844 0 0 0-.376-.632 1.819 1.819 0 0 0-.616-.448 1.982 1.982 0 0 0-.832-.168h-.896Zm7.057 1.856a1.403 1.403 0 0 0-.344-.04c-.373 0-.658.11-.856.328-.197.213-.296.555-.296 1.024V45h-.872v-3.728h.872v.6a.95.95 0 0 1 .176-.24c.08-.08.171-.15.272-.208.107-.064.219-.112.336-.144.123-.037.246-.056.368-.056.139 0 .254.019.344.056v.8Zm4.195-.808V45h-.872v-.504a1.207 1.207 0 0 1-.504.44 1.44 1.44 0 0 1-.648.16c-.283 0-.542-.05-.776-.152a1.902 1.902 0 0 1-.608-.432 2.08 2.08 0 0 1-.392-.624 2.061 2.061 0 0 1-.136-.752c0-.261.045-.51.136-.744.096-.24.226-.45.392-.632a1.8 1.8 0 0 1 .608-.424 1.85 1.85 0 0 1 .776-.16c.218 0 .434.053.648.16.218.107.386.253.504.44v-.504h.872Zm-1.976 3.048a1.077 1.077 0 0 0 1.024-.728 1.31 1.31 0 0 0 .08-.456c0-.16-.027-.312-.08-.456a1.077 1.077 0 0 0-1.024-.728c-.166 0-.315.032-.448.096-.134.064-.248.15-.344.256a1.15 1.15 0 0 0-.224.376 1.433 1.433 0 0 0-.072.456c0 .16.024.312.072.456.053.144.128.27.224.376.096.107.21.192.344.256.133.064.282.096.448.096Zm5.572-2.104L137.368 45h-.584l-1.448-3.728h.936l.808 2.36.84-2.36h.856l.84 2.36.808-2.36h.936L139.912 45h-.584l-.976-2.784Z" fill="#000"/>
  <circle cx="14.814" cy="70.128" r="13.686" stroke="#000"/>
  <path d="m90 56.314-28 28M90 70 76 84M62 70l14-14M149.843 84.157l-28-28M136.157 84.157l-14-14M136.157 56.157l14 14" stroke="#000"/>
  <path d="m31 65 2.245-5.32 3.484 4.605L31 65Zm0-36 .354-.353.002.002.005.005.017.017.057.06c.048.053.117.13.204.233.173.204.417.509.707.92.58.822 1.347 2.069 2.11 3.788 1.53 3.44 3.044 8.76 3.044 16.328h-1c0-7.431-1.486-12.612-2.957-15.922-.736-1.656-1.47-2.846-2.014-3.618a12.195 12.195 0 0 0-.652-.85 6.52 6.52 0 0 0-.22-.246l-.01-.01-.001-.001L31 29Zm6.5 21c0 6.564-1.139 10.353-2.486 12.547l-.852-.524C35.375 60.047 36.5 56.466 36.5 50h1Z" fill="#CFCFCF"/>
</svg>